<svg width="18" height="18" viewBox="0 0 18 18" fill="none" xmlns="http://www.w3.org/2000/svg">
<path d="M1.8 18C1.305 18 0.88125 17.8042 0.52875 17.4125C0.17625 17.0208 0 16.55 0 16V13H18V16C18 16.55 17.8238 17.0208 17.4713 17.4125C17.1188 17.8042 16.695 18 16.2 18H1.8ZM1.8 15V16H16.2V15H1.8ZM9 10.5C8.46 10.5 8.0325 10.6667 7.7175 11C7.4025 11.3333 6.825 11.5 5.985 11.5C5.145 11.5 4.575 11.3333 4.275 11C3.975 10.6667 3.555 10.5 3.015 10.5C2.475 10.5 2.0475 10.6667 1.7325 11C1.4175 11.3333 0.84 11.5 0 11.5V9.5C0.54 9.5 0.9675 9.33333 1.2825 9C1.5975 8.66667 2.175 8.5 3.015 8.5C3.855 8.5 4.425 8.66667 4.725 9C5.025 9.33333 5.445 9.5 5.985 9.5C6.525 9.5 6.9525 9.33333 7.2675 9C7.5825 8.66667 8.16 8.5 9 8.5C9.84 8.5 10.4175 8.66667 10.7325 9C11.0475 9.33333 11.475 9.5 12.015 9.5C12.555 9.5 12.975 9.33333 13.275 9C13.575 8.66667 14.145 8.5 14.985 8.5C15.825 8.5 16.4175 8.66667 16.7625 9C17.1075 9.33333 17.52 9.5 18 9.5V11.5C17.16 11.5 16.5975 11.3333 16.3125 11C16.0275 10.6667 15.615 10.5 15.075 10.5C14.535 10.5 14.1 10.6667 13.77 11C13.44 11.3333 12.855 11.5 12.015 11.5C11.175 11.5 10.5975 11.3333 10.2825 11C9.9675 10.6667 9.54 10.5 9 10.5ZM0 7V6C0 4.08333 0.81375 2.60417 2.44125 1.5625C4.06875 0.520833 6.255 0 9 0C11.745 0 13.9313 0.520833 15.5588 1.5625C17.1863 2.60417 18 4.08333 18 6V7H0ZM9 2C7.14 2 5.58375 2.25833 4.33125 2.775C3.07875 3.29167 2.28 4.03333 1.935 5H16.065C15.72 4.03333 14.9213 3.29167 13.6688 2.775C12.4163 2.25833 10.86 2 9 2Z" fill="#00C684"/>
</svg>
